<svg width="82" height="82" viewBox="0 0 82 82" fill="none" xmlns="http://www.w3.org/2000/svg">
<path d="M41 0C23.7795 0 9.76953 14.01 9.76953 31.2305C9.76953 42.3472 13.1512 46.8053 29.4016 68.2282C32.2225 71.9468 35.4198 76.1617 39.0781 81.0391C39.5318 81.644 40.2439 82 41.0002 82C41.7564 82 42.4683 81.6438 42.922 81.0387C46.5589 76.1876 49.7423 71.9888 52.5511 68.2842C68.8406 46.7991 72.2305 42.328 72.2305 31.2305C72.2305 14.01 58.2205 0 41 0ZM48.7226 65.3814C46.4157 68.424 43.8565 71.7995 40.9995 75.5976C38.123 71.7751 35.5492 68.3822 33.2295 65.3242C17.4224 44.486 14.5742 40.7311 14.5742 31.2305C14.5742 16.6593 26.4288 4.80469 41 4.80469C55.5712 4.80469 67.4258 16.6593 67.4258 31.2305C67.4258 40.7125 64.5702 44.4789 48.7226 65.3814Z" fill="#23987C"/>
<path d="M41 14.4141C31.7274 14.4141 24.1836 21.9579 24.1836 31.2305C24.1836 40.503 31.7274 48.0469 41 48.0469C50.2726 48.0469 57.8164 40.503 57.8164 31.2305C57.8164 21.9579 50.2726 14.4141 41 14.4141ZM41 43.2422C34.3767 43.2422 28.9883 37.8537 28.9883 31.2305C28.9883 24.6072 34.3767 19.2188 41 19.2188C47.6233 19.2188 53.0117 24.6072 53.0117 31.2305C53.0117 37.8537 47.6233 43.2422 41 43.2422Z" fill="#23987C"/>
</svg>
